<?xml version="1.0" standalone="no"?><!-- Generator: Gravit.io --><svg xmlns="http://www.w3.org/2000/svg" xmlns:xlink="http://www.w3.org/1999/xlink" style="isolation:isolate" viewBox="0 0 512 512" width="512" height="512"><defs><clipPath id="_clipPath_G59SajeDJvrFYFeRtrYDAki1l5HEW5sn"><rect width="512" height="512"/></clipPath></defs><g clip-path="url(#_clipPath_G59SajeDJvrFYFeRtrYDAki1l5HEW5sn)"><path d=" M 0 256 C 0 114.71 114.71 0 256 0 C 397.29 0 512 114.71 512 256 C 512 397.29 397.29 512 256 512 C 114.71 512 0 397.29 0 256 Z " fill="rgb(114,65,142)"/><path d=" M 201.507 335.586 L 201.507 335.586 Q 215.177 341.017 223.042 344.013 L 223.042 344.013 L 223.042 344.013 Q 230.907 347.009 239.521 349.256 L 239.521 349.256 L 239.521 349.256 Q 241.955 343.076 241.955 332.403 L 241.955 332.403 L 241.955 332.403 Q 241.955 317.983 239.896 279.595 L 239.896 279.595 L 239.896 279.595 Q 236.899 228.285 236.899 200.945 L 236.899 200.945 L 236.899 200.945 Q 236.899 182.032 238.023 168.362 L 238.023 168.362 L 207.125 166.489 L 206.563 225.476 L 206.563 225.476 Q 192.518 230.158 174.916 230.158 L 174.916 230.158 L 174.916 230.158 Q 170.422 230.158 168.175 229.971 L 168.175 229.971 L 168.175 229.971 Q 161.995 225.102 155.347 214.615 L 155.347 214.615 L 155.347 214.615 Q 148.699 204.129 144.392 191.02 L 144.392 191.02 L 144.392 191.02 Q 140.085 177.912 140.085 165.74 L 140.085 165.74 L 140.085 165.74 Q 140.085 144.767 147.014 133.718 L 147.014 133.718 L 147.014 133.718 Q 153.943 122.67 166.489 118.457 L 166.489 118.457 L 166.489 118.457 Q 179.036 114.243 200.009 112.932 L 200.009 112.932 L 200.009 112.932 Q 232.592 111.06 276.692 110.03 L 276.692 110.03 L 276.692 110.03 Q 320.792 109 361.054 109 L 361.054 109 L 361.054 109 Q 366.484 115.929 369.199 124.543 L 369.199 124.543 L 369.199 124.543 Q 371.915 133.157 371.915 141.771 L 371.915 141.771 L 371.915 141.771 Q 371.915 157.875 363.675 168.736 L 363.675 168.736 L 363.675 168.736 Q 355.436 179.597 339.331 179.597 L 339.331 179.597 L 339.331 179.597 Q 328.845 179.597 314.051 175.852 L 314.051 175.852 L 314.051 175.852 Q 310.68 263.865 304.313 338.395 L 304.313 338.395 L 304.313 338.395 Q 303.003 352.814 300.006 363.862 L 300.006 363.862 L 300.006 363.862 Q 297.01 374.911 290.831 383.15 L 290.831 383.15 L 290.831 383.15 Q 283.153 393.262 269.67 398.131 L 269.67 398.131 L 269.67 398.131 Q 256.187 403 239.896 403 L 239.896 403 L 239.896 403 Q 224.54 403 209.653 397.569 L 209.653 397.569 L 209.653 397.569 Q 194.766 392.139 187.275 377.532 L 187.275 377.532 L 187.275 377.532 Q 187.462 365.361 190.271 355.904 L 190.271 355.904 L 190.271 355.904 Q 193.08 346.447 201.507 335.586 L 201.507 335.586 Z " fill="rgb(255,255,255)"/></g></svg>